<svg width="400" height="104" viewBox="0 0 400 104" fill="none" xmlns="http://www.w3.org/2000/svg">
<rect width="400" height="104" fill="black"/>
<g clip-path="url(#clip0_676_2)">
<path d="M147.862 63.4815C143.694 63.4815 140.506 62.2708 138.3 59.8496C136.093 57.3977 134.99 54.103 134.99 49.9654C134.99 47.2377 135.465 44.8777 136.415 42.8856C137.365 40.8628 138.79 39.2997 140.69 38.1963C142.621 37.0623 145.012 36.4953 147.862 36.4953C152.061 36.4953 155.248 37.7213 157.424 40.1732C159.631 42.5944 160.735 45.8585 160.735 49.9654C160.735 52.6318 160.244 54.9918 159.263 57.0452C158.283 59.0681 156.842 60.6465 154.942 61.7805C153.042 62.9145 150.682 63.4815 147.862 63.4815ZM147.816 58.9761C149.686 58.9761 151.233 58.593 152.459 57.8268C153.685 57.0299 154.605 55.9572 155.218 54.6087C155.831 53.2295 156.137 51.6817 156.137 49.9654C156.137 48.2184 155.831 46.6707 155.218 45.3221C154.605 43.9429 153.685 42.8702 152.459 42.104C151.233 41.3072 149.686 40.9087 147.816 40.9087C145.119 40.9087 143.066 41.7362 141.656 43.3913C140.246 45.0463 139.541 47.2377 139.541 49.9654C139.541 51.6511 139.832 53.1835 140.414 54.5627C141.027 55.9112 141.947 56.9839 143.173 57.7808C144.399 58.5777 145.947 58.9761 147.816 58.9761Z" fill="white"/>
<path d="M175.736 63.2976C174.571 63.2976 173.59 63.129 172.793 62.7919C172.027 62.4241 171.399 61.995 170.909 61.5046C170.449 61.0142 170.096 60.5698 169.851 60.1714C169.637 59.773 169.514 59.5431 169.483 59.4818H169.391V71.2509H164.564V43.9429H168.656L169.437 48.0805H169.529C169.56 47.9886 169.667 47.728 169.851 47.299C170.035 46.8699 170.357 46.3948 170.817 45.8738C171.276 45.3528 171.905 44.9084 172.702 44.5406C173.498 44.1421 174.494 43.9429 175.69 43.9429C177.59 43.9429 179.107 44.3567 180.241 45.1842C181.406 46.0117 182.249 47.161 182.77 48.6322C183.321 50.1033 183.597 51.8043 183.597 53.7352C183.597 55.6967 183.321 57.3977 182.77 58.8382C182.218 60.248 181.36 61.3514 180.195 62.1482C179.061 62.9144 177.575 63.2976 175.736 63.2976ZM174.311 59.3439C175.598 59.3439 176.579 59.0834 177.253 58.5623C177.958 58.0107 178.433 57.3057 178.678 56.4476C178.954 55.5588 179.092 54.6393 179.092 53.6892C179.092 52.7391 178.954 51.835 178.678 50.9768C178.402 50.1186 177.896 49.429 177.161 48.908C176.456 48.387 175.475 48.1265 174.219 48.1265C173.085 48.1265 172.165 48.3717 171.46 48.862C170.755 49.3218 170.234 49.9807 169.897 50.8389C169.591 51.6664 169.437 52.6165 169.437 53.6892C169.437 54.7926 169.606 55.7733 169.943 56.6315C170.28 57.459 170.801 58.1179 171.506 58.6083C172.242 59.0987 173.177 59.3439 174.311 59.3439Z" fill="white"/>
<path d="M195.467 63.2976C193.291 63.2976 191.513 62.8378 190.134 61.9184C188.785 60.9683 187.774 59.7576 187.1 58.2865C186.456 56.8154 186.119 55.2829 186.088 53.6892C186.058 51.789 186.41 50.1033 187.146 48.6322C187.912 47.1304 188.985 45.9658 190.364 45.1382C191.774 44.2801 193.429 43.851 195.329 43.851C197.015 43.851 198.532 44.2188 199.881 44.9543C201.229 45.6899 202.286 46.7166 203.053 48.0345C203.85 49.3524 204.263 50.9308 204.294 52.7698C204.294 52.8311 204.294 53.0149 204.294 53.3214C204.294 53.5973 204.294 53.8118 204.294 53.9651H190.548C190.548 55.712 190.977 57.0606 191.835 58.0107C192.724 58.9301 193.904 59.3899 195.375 59.3899C196.54 59.3899 197.505 59.0987 198.271 58.5164C199.068 57.9341 199.543 57.1678 199.697 56.2177H204.248C204.125 57.5356 203.696 58.7309 202.961 59.8036C202.225 60.8763 201.229 61.7345 199.972 62.3781C198.716 62.9911 197.214 63.2976 195.467 63.2976ZM190.686 51.8503H199.605C199.574 51.6358 199.513 51.2986 199.421 50.8389C199.329 50.3792 199.13 49.9041 198.823 49.4137C198.516 48.9233 198.072 48.5096 197.49 48.1725C196.907 47.8353 196.156 47.6668 195.237 47.6668C194.317 47.6668 193.567 47.82 192.984 48.1265C192.402 48.433 191.958 48.8161 191.651 49.2758C191.345 49.7355 191.115 50.1953 190.961 50.655C190.808 51.1147 190.716 51.5132 190.686 51.8503Z" fill="white"/>
<path d="M207.875 62.8378V43.9429H211.875L212.657 48.0345H212.749C212.779 47.9426 212.887 47.6974 213.07 47.299C213.285 46.8699 213.622 46.3948 214.082 45.8738C214.572 45.3528 215.216 44.9084 216.013 44.5406C216.84 44.1421 217.867 43.9429 219.093 43.9429C220.441 43.9429 221.529 44.1728 222.357 44.6325C223.215 45.0616 223.889 45.6439 224.38 46.3795C224.87 47.0844 225.207 47.8813 225.391 48.7701C225.606 49.6283 225.728 50.4864 225.759 51.3446C225.82 52.2027 225.851 52.9843 225.851 53.6892V62.8378H221.254V53.6432C221.254 52.6318 221.146 51.7124 220.932 50.8849C220.748 50.0573 220.365 49.3831 219.782 48.862C219.231 48.341 218.357 48.0805 217.162 48.0805C215.936 48.0805 215.001 48.3717 214.358 48.954C213.714 49.5057 213.27 50.2106 213.024 51.0687C212.779 51.9269 212.657 52.8464 212.657 53.8271V62.8378H207.875Z" fill="white"/>
<path d="M240.83 63.2976C239.696 63.2976 238.731 63.129 237.934 62.7919C237.137 62.4241 236.478 61.995 235.957 61.5046C235.467 61.0142 235.099 60.5698 234.854 60.1714C234.639 59.773 234.517 59.5431 234.486 59.4818H234.394L233.613 62.8378H229.567V36.9551H234.394V48.0805H234.486C234.517 47.9886 234.639 47.7281 234.854 47.299C235.068 46.8699 235.406 46.3948 235.865 45.8738C236.356 45.3528 236.999 44.9084 237.796 44.5406C238.624 44.1422 239.635 43.9429 240.83 43.9429C242.7 43.9429 244.202 44.3567 245.336 45.1842C246.47 45.9811 247.297 47.1151 247.818 48.5862C248.37 50.0267 248.646 51.743 248.646 53.7352C248.646 55.6354 248.385 57.3058 247.864 58.7462C247.343 60.1867 246.5 61.3054 245.336 62.1023C244.202 62.8991 242.7 63.2976 240.83 63.2976ZM239.313 59.3439C240.57 59.3439 241.535 59.0834 242.21 58.5623C242.915 58.0107 243.39 57.3058 243.635 56.4476C243.911 55.5588 244.049 54.6393 244.049 53.6892C244.049 52.7391 243.911 51.835 243.635 50.9768C243.359 50.1186 242.869 49.4291 242.164 48.908C241.459 48.387 240.463 48.1265 239.175 48.1265C238.041 48.1265 237.122 48.3717 236.417 48.8621C235.712 49.3218 235.206 49.9807 234.9 50.8389C234.593 51.6664 234.44 52.6165 234.44 53.6892C234.44 54.7926 234.593 55.7733 234.9 56.6315C235.237 57.459 235.758 58.1179 236.463 58.6083C237.199 59.0987 238.149 59.3439 239.313 59.3439Z" fill="white"/>
<path d="M258.489 63.2976C256.773 63.2976 255.379 62.8991 254.306 62.1023C253.233 61.2748 252.452 60.1408 251.961 58.7003C251.502 57.2291 251.272 55.5435 251.272 53.6432C251.272 51.7124 251.517 50.0114 252.007 48.5402C252.498 47.0691 253.264 45.9351 254.306 45.1382C255.379 44.3107 256.773 43.897 258.489 43.897C259.593 43.897 260.512 44.0502 261.248 44.3567C262.014 44.6632 262.627 45.031 263.087 45.4601C263.577 45.8891 263.945 46.3182 264.19 46.7473C264.435 47.1457 264.604 47.4675 264.696 47.7127H264.788V43.9429H269.615V62.8378H265.569L264.788 59.7576H264.696C264.635 59.9722 264.466 60.2787 264.19 60.6771C263.914 61.0449 263.531 61.4433 263.041 61.8724C262.581 62.2708 261.968 62.608 261.202 62.8838C260.466 63.1596 259.562 63.2976 258.489 63.2976ZM260.42 59.3439C261.554 59.3439 262.443 59.0987 263.087 58.6083C263.73 58.1179 264.175 57.4437 264.42 56.5855C264.665 55.6967 264.788 54.7313 264.788 53.6892C264.788 52.5552 264.65 51.5745 264.374 50.7469C264.129 49.8888 263.684 49.2298 263.041 48.7701C262.428 48.2797 261.554 48.0345 260.42 48.0345C259.225 48.0345 258.29 48.2951 257.616 48.8161C256.972 49.3371 256.513 50.0267 256.237 50.8849C255.992 51.7124 255.869 52.6472 255.869 53.6892C255.869 54.7313 255.992 55.6814 256.237 56.5395C256.513 57.3977 256.972 58.0873 257.616 58.6083C258.29 59.0987 259.225 59.3439 260.42 59.3439Z" fill="white"/>
<path d="M280.931 63.2976C280.287 63.2976 279.582 63.2056 278.816 63.0217C278.05 62.8685 277.284 62.6233 276.518 62.2862C275.751 61.9184 275.046 61.4587 274.403 60.907C273.79 60.3553 273.299 59.7117 272.932 58.9761C272.564 58.2405 272.38 57.3824 272.38 56.4016H276.701C276.701 56.4323 276.717 56.6315 276.747 56.9993C276.809 57.3671 276.962 57.7808 277.207 58.2405C277.452 58.6696 277.851 59.0527 278.402 59.3899C278.954 59.727 279.751 59.8956 280.793 59.8956C281.621 59.8956 282.295 59.7883 282.816 59.5738C283.337 59.3592 283.72 59.0987 283.965 58.7922C284.241 58.4551 284.379 58.0873 284.379 57.6889C284.379 57.0146 284.088 56.4936 283.505 56.1258C282.954 55.7274 282.233 55.4055 281.345 55.1604C280.456 54.9152 279.506 54.67 278.494 54.4248C277.514 54.149 276.579 53.7965 275.69 53.3674C274.832 52.9383 274.127 52.356 273.575 51.6204C273.024 50.8542 272.748 49.8735 272.748 48.6782C272.748 46.9005 273.453 45.5673 274.862 44.6785C276.272 43.7897 278.065 43.3453 280.241 43.3453C281.406 43.3453 282.494 43.4832 283.505 43.7591C284.547 44.0043 285.467 44.418 286.264 45.0003C287.061 45.552 287.689 46.2723 288.149 47.1611C288.639 48.0192 288.884 49.0766 288.884 50.3332H284.563C284.593 49.6283 284.471 49.0613 284.195 48.6322C283.95 48.1725 283.613 47.82 283.184 47.5748C282.755 47.3296 282.295 47.1611 281.804 47.0691C281.314 46.9772 280.839 46.9312 280.379 46.9312C279.276 46.9312 278.433 47.1304 277.851 47.5288C277.299 47.8966 277.023 48.387 277.023 49C277.023 49.7049 277.299 50.2566 277.851 50.655C278.433 51.0228 279.169 51.3293 280.057 51.5745C280.977 51.8197 281.942 52.0802 282.954 52.356C283.965 52.6012 284.915 52.9383 285.804 53.3674C286.693 53.7965 287.413 54.3788 287.965 55.1144C288.547 55.8193 288.838 56.7694 288.838 57.9647C288.838 59.16 288.501 60.1561 287.827 60.953C287.183 61.7192 286.264 62.3015 285.068 62.6999C283.904 63.0984 282.525 63.2976 280.931 63.2976Z" fill="white"/>
<path d="M300.746 63.2976C298.57 63.2976 296.793 62.8378 295.413 61.9184C294.065 60.9683 293.053 59.7576 292.379 58.2865C291.736 56.8154 291.398 55.2829 291.368 53.6892C291.337 51.789 291.69 50.1033 292.425 48.6322C293.191 47.1304 294.264 45.9658 295.643 45.1382C297.053 44.2801 298.708 43.851 300.608 43.851C302.294 43.851 303.811 44.2188 305.16 44.9543C306.508 45.6899 307.566 46.7166 308.332 48.0345C309.129 49.3524 309.542 50.9308 309.573 52.7698C309.573 52.8311 309.573 53.0149 309.573 53.3214C309.573 53.5973 309.573 53.8118 309.573 53.9651H295.827C295.827 55.712 296.256 57.0606 297.114 58.0107C298.003 58.9301 299.183 59.3899 300.654 59.3899C301.819 59.3899 302.784 59.0987 303.551 58.5164C304.347 57.9341 304.823 57.1678 304.976 56.2177H309.527C309.404 57.5356 308.975 58.7309 308.24 59.8036C307.504 60.8763 306.508 61.7345 305.252 62.3781C303.995 62.9911 302.493 63.2976 300.746 63.2976ZM295.965 51.8503H304.884C304.853 51.6358 304.792 51.2986 304.7 50.8389C304.608 50.3792 304.409 49.9041 304.102 49.4137C303.796 48.9233 303.351 48.5096 302.769 48.1725C302.187 47.8353 301.436 47.6668 300.516 47.6668C299.597 47.6668 298.846 47.82 298.264 48.1265C297.681 48.433 297.237 48.8161 296.93 49.2758C296.624 49.7355 296.394 50.1953 296.241 50.655C296.088 51.1147 295.996 51.5132 295.965 51.8503Z" fill="white"/>
<path d="M89.2838 39.8514C89.2838 35.6197 92.7143 32.1892 96.9459 32.1892H106.797V49.7027H89.2838V39.8514Z" fill="white"/>
<path d="M106.797 49.7027H124.311V59.554C124.311 63.7858 120.88 67.2162 116.649 67.2162H106.797V49.7027Z" fill="white"/>
<path d="M111.176 32.1892H124.311V45.3243L106.797 49.7027L111.176 32.1892Z" fill="white"/>
<path d="M89.2838 54.0811L106.797 49.7027L102.419 67.2162H89.2838V54.0811Z" fill="white"/>
</g>
<defs>
<clipPath id="clip0_676_2">
<rect width="221.108" height="39.4054" fill="white" transform="translate(89.2838 32.1892)"/>
</clipPath>
</defs>
</svg>
