<svg width="1200" height="360" viewBox="0 0 1200 360" fill="none" xmlns="http://www.w3.org/2000/svg">
  <rect width="1200" height="360" rx="28" fill="#050505"/>
  <rect x="1" y="1" width="1198" height="358" rx="27" stroke="#1f2937" stroke-width="2"/>
  <g transform="translate(140 92)">
    <rect width="112" height="112" rx="28" fill="#fff"/>
    <path d="M56 56H112V84C112 99.464 99.464 112 84 112H56V56Z" fill="#050505"/>
    <path d="M70 0H112V42L56 56L70 0Z" fill="#050505"/>
    <path d="M0 70L56 56L42 112H0V70Z" fill="#050505"/>
    <path d="M0 28C0 12.536 12.536 0 28 0H56V56H0V28Z" fill="#050505"/>
  </g>
  <text x="286" y="158" fill="#ffffff" font-family="Inter, ui-sans-serif, system-ui, -apple-system, BlinkMacSystemFont, Segoe UI, sans-serif" font-size="78" font-weight="760" letter-spacing="0">Openbase Coder</text>
  <text x="290" y="218" fill="#d1d5db" font-family="Inter, ui-sans-serif, system-ui, -apple-system, BlinkMacSystemFont, Segoe UI, sans-serif" font-size="30" font-weight="500" letter-spacing="0">Write code from voice.</text>
  <text x="290" y="260" fill="#7dd3fc" font-family="Inter, ui-sans-serif, system-ui, -apple-system, BlinkMacSystemFont, Segoe UI, sans-serif" font-size="22" font-weight="650" letter-spacing="2">VOICE IDE · AGENTS · APPROVALS · DIFFS</text>
</svg>
